<svg xmlns="http://www.w3.org/2000/svg" xmlns:xlink="http://www.w3.org/1999/xlink" version="1.1" width="400" height="307" viewBox="0 0 400 307" xml:space="preserve">
<desc>Created with Fabric.js 3.5.0</desc>
<defs>
</defs>
<rect x="0" y="0" width="100%" height="100%" fill="rgba(255,255,255,0)"/>
<g transform="matrix(0.2318 0 0 0.2318 302.215 153.4986)" id="307828">
<g style="" vector-effect="non-scaling-stroke">
		<g transform="matrix(1.5625 0 0 1.5625 -89.4822 78.9491)">
<path style="stroke: none; stroke-width: 1; stroke-dasharray: none; stroke-linecap: butt; stroke-dashoffset: 0; stroke-linejoin: miter; stroke-miterlimit: 4; is-custom-font: none; font-file-url: none; fill: rgb(107,191,164); fill-rule: nonzero; opacity: 1;" transform=" translate(-198.7314, -117.0274)" d="M 169.19055 104.133614 C 169.19055 125.388101 187.171431 129.921248 187.171431 129.921248 L 228.272156 129.921248 L 228.272156 104.133614 L 169.19055 104.133614" stroke-linecap="round"/>
</g>
		<g transform="matrix(1.5625 0 0 1.5625 6.2308 0.553)">
<path style="stroke: none; stroke-width: 1; stroke-dasharray: none; stroke-linecap: butt; stroke-dashoffset: 0; stroke-linejoin: miter; stroke-miterlimit: 4; is-custom-font: none; font-file-url: none; fill: rgb(115,190,136); fill-rule: nonzero; opacity: 1;" transform=" translate(-259.9877, -66.8539)" d="M 247.309973 3.23967251 L 272.66545 3.23967251 L 272.66545 130.468179 L 247.309973 130.468179 L 247.309973 3.23967251 Z" stroke-linecap="round"/>
</g>
		<g transform="matrix(1.5625 0 0 1.5625 150.5364 0.553)">
<path style="stroke: none; stroke-width: 1; stroke-dasharray: none; stroke-linecap: butt; stroke-dashoffset: 0; stroke-linejoin: miter; stroke-miterlimit: 4; is-custom-font: none; font-file-url: none; fill: rgb(163,204,105); fill-rule: nonzero; opacity: 1;" transform=" translate(-352.3433, -66.8539)" d="M 385.422222 130.468179 L 320.899244 45.4971384 L 320.808421 130.468179 L 295.453942 130.468179 L 295.453942 3.23967251 L 319.172616 3.23967251 L 383.787415 88.2097154 L 383.787415 3.23967251 L 409.232717 3.23967251 L 409.232717 130.468179 L 385.422222 130.468179" stroke-linecap="round"/>
</g>
		<g transform="matrix(1.5625 0 0 1.5625 314.3657 -78.8412)">
<path style="stroke: none; stroke-width: 1; stroke-dasharray: none; stroke-linecap: butt; stroke-dashoffset: 0; stroke-linejoin: miter; stroke-miterlimit: 4; is-custom-font: none; font-file-url: none; fill: rgb(236,226,60); fill-rule: nonzero; opacity: 1;" transform=" translate(-457.194, -16.0417)" d="M 486.734347 28.9354854 C 486.734347 7.68099805 468.753466 3.14785185 468.753466 3.14785185 L 427.653739 3.14785185 L 427.653739 28.9354854 L 486.734347 28.9354854" stroke-linecap="round"/>
</g>
		<g transform="matrix(1.5625 0 0 1.5625 -0.1809 0.4821)">
<path style="stroke: none; stroke-width: 1; stroke-dasharray: none; stroke-linecap: butt; stroke-dashoffset: 0; stroke-linejoin: miter; stroke-miterlimit: 4; is-custom-font: none; font-file-url: none; fill: rgb(114,115,109); fill-rule: nonzero; opacity: 1;" transform=" translate(-255.8842, -66.8085)" d="M 169.19055 104.133614 L 169.168593 104.813287 L 169.168593 3.14385965 L 144.156444 3.14385965 L 144.156444 107.266495 C 144.156444 119.781053 153.148881 129.924242 169.168593 129.924242 L 184.981708 129.921248 L 187.171431 129.921248 C 187.171431 129.921248 169.19055 125.388101 169.19055 104.133614 L 169.19055 104.133614 Z M 486.734347 28.9354854 L 486.757302 28.2558129 L 486.757302 129.924242 L 511.768452 129.924242 L 511.768452 25.8026043 C 511.768452 13.2880468 502.776016 3.14385965 486.757302 3.14385965 L 470.943189 3.14785185 L 468.753466 3.14785185 C 468.753466 3.14785185 486.734347 7.68099805 486.734347 28.9354854 L 486.734347 28.9354854 Z M 115.414581 20.4151267 L 97.1482573 38.3171618 C 89.8784561 29.9574893 79.517692 24.9592515 66.4312515 24.9592515 C 43.1666901 24.9592515 26.2637037 42.043883 26.2637037 66.8534269 C 26.2637037 92.7538402 43.894269 109.111891 65.9771384 109.111891 C 86.7884912 109.111891 98.7840624 99.2062378 102.146495 81.0307368 L 69.7946823 81.0307368 L 69.7946823 59.8560936 L 128.319376 59.8560936 C 128.591844 62.3093021 128.682667 64.5818635 128.682667 67.0350721 C 128.682667 105.567813 102.601606 132.740741 66.5220741 132.740741 C 31.2619415 132.740741 0 107.930199 0 66.8534269 C 0 28.4125068 28.081154 0.876288499 67.1588304 0.876288499 C 87.5150721 0.876288499 104.054768 8.05526706 115.414581 20.4151267 L 115.414581 20.4151267 Z" stroke-linecap="round"/>
</g>
</g>
</g>
<g transform="matrix(0.4635 0 0 0.4635 103.9535 153.5038)" id="662879">
<g style="">
		<g transform="matrix(0.182 0 0 0.182 18.9987 -9.2031)" id="54517">
<g style="" vector-effect="non-scaling-stroke">
		<g transform="matrix(1.5625 0 0 1.5625 -217.5 -0.1563)">
<path style="stroke: none; stroke-width: 1; stroke-dasharray: none; stroke-linecap: butt; stroke-dashoffset: 0; stroke-linejoin: miter; stroke-miterlimit: 4; is-custom-font: none; font-file-url: none; fill: rgb(166,206,57); fill-rule: nonzero; opacity: 1;" transform=" translate(-116.8, -255.9)" d="M 116.8 139.1 c 64.5 0 116.8 52.3 116.8 116.8 s -52.3 116.8 -116.8 116.8 S 0 320.5 0 256 c 0 -64.6 52.3 -116.9 116.8 -116.9 z" stroke-linecap="round"/>
</g>
		<g transform="matrix(1.5625 0 0 1.5625 -217.5 -0.1563)">
<path style="stroke: none; stroke-width: 1; stroke-dasharray: none; stroke-linecap: butt; stroke-dashoffset: 0; stroke-linejoin: miter; stroke-miterlimit: 4; is-custom-font: none; font-file-url: none; fill: rgb(0,170,174); fill-rule: nonzero; opacity: 1;" transform=" translate(-116.8, -255.9)" d="M 116.8 175.6 c 44.4 0 80.3 36 80.3 80.3 s -36 80.3 -80.3 80.3 s -80.3 -36 -80.3 -80.3 s 36 -80.3 80.3 -80.3 z" stroke-linecap="round"/>
</g>
		<g transform="matrix(1.5625 0 0 1.5625 -217.5 -0.1563)">
<path style="stroke: none; stroke-width: 1; stroke-dasharray: none; stroke-linecap: butt; stroke-dashoffset: 0; stroke-linejoin: miter; stroke-miterlimit: 4; is-custom-font: none; font-file-url: none; fill: rgb(114,115,109); fill-rule: nonzero; opacity: 1;" transform=" translate(-116.8, -255.9)" d="M 116.8 212.1 c 24.2 0 43.8 19.6 43.8 43.8 s -19.6 43.8 -43.8 43.8 S 73 280.1 73 256 s 19.6 -43.9 43.8 -43.9 z" stroke-linecap="round"/>
</g>
		<g transform="matrix(1.5625 0 0 1.5625 -166.0938 -40)">
<path style="stroke: none; stroke-width: 1; stroke-dasharray: none; stroke-linecap: butt; stroke-dashoffset: 0; stroke-linejoin: miter; stroke-miterlimit: 4; is-custom-font: none; font-file-url: none; fill: rgb(236,226,60); fill-rule: nonzero; opacity: 1;" transform=" translate(-149.7, -230.4)" d="M 149.7 212.1 c 10.1 0 18.3 8.2 18.3 18.3 c 0 10.1 -8.2 18.3 -18.3 18.3 c -10.1 0 -18.3 -8.2 -18.3 -18.3 c 0 -10.1 8.2 -18.3 18.3 -18.3 z" stroke-linecap="round"/>
</g>
		<g transform="matrix(1.5625 0 0 1.5625 -172.7344 -36.0157)">
<path style="stroke: none; stroke-width: 1; stroke-dasharray: none; stroke-linecap: butt; stroke-dashoffset: 0; stroke-linejoin: miter; stroke-miterlimit: 4; is-custom-font: none; font-file-url: none; fill: rgb(236,226,60); fill-rule: nonzero; opacity: 1;" transform=" translate(-145.45, -232.95)" d="M 159.4 245.8 c -3 -12.4 -11.2 -22.8 -22.2 -28.6 c -3.5 3.3 -5.7 8 -5.7 13.2 c 0 10.1 8.2 18.3 18.3 18.3 c 3.5 0 6.8 -1.1 9.6 -2.9 z" stroke-linecap="round"/>
</g>
		<g transform="matrix(1.5625 0 0 1.5625 217.3438 -0.1563)">
<path style="stroke: none; stroke-width: 1; stroke-dasharray: none; stroke-linecap: butt; stroke-dashoffset: 0; stroke-linejoin: miter; stroke-miterlimit: 4; is-custom-font: none; font-file-url: none; fill: rgb(166,206,57); fill-rule: nonzero; opacity: 1;" transform=" translate(-395.1, -255.9)" d="M 395.1 139.1 c 64.5 0 116.8 52.3 116.8 116.8 s -52.3 116.8 -116.8 116.8 S 278.3 320.5 278.3 256 c 0 -64.6 52.3 -116.9 116.8 -116.9 z" stroke-linecap="round"/>
</g>
		<g transform="matrix(1.5625 0 0 1.5625 217.3438 -0.1563)">
<path style="stroke: none; stroke-width: 1; stroke-dasharray: none; stroke-linecap: butt; stroke-dashoffset: 0; stroke-linejoin: miter; stroke-miterlimit: 4; is-custom-font: none; font-file-url: none; fill: rgb(0,170,174); fill-rule: nonzero; opacity: 1;" transform=" translate(-395.1, -255.9)" d="M 395.1 175.6 c 44.4 0 80.3 36 80.3 80.3 s -36 80.3 -80.3 80.3 s -80.3 -36 -80.3 -80.3 s 36 -80.3 80.3 -80.3 z" stroke-linecap="round"/>
</g>
		<g transform="matrix(1.5625 0 0 1.5625 217.3438 -0.1562)">
<path style="stroke: none; stroke-width: 1; stroke-dasharray: none; stroke-linecap: butt; stroke-dashoffset: 0; stroke-linejoin: miter; stroke-miterlimit: 4; is-custom-font: none; font-file-url: none; fill: rgb(114,115,109); fill-rule: nonzero; opacity: 1;" transform=" translate(-395.1, -255.9)" d="M 395.1 212.1 c 24.2 0 43.8 19.6 43.8 43.8 s -19.6 43.8 -43.8 43.8 s -43.8 -19.6 -43.8 -43.8 s 19.6 -43.8 43.8 -43.8 z" stroke-linecap="round"/>
</g>
		<g transform="matrix(1.5625 0 0 1.5625 268.75 -40)">
<path style="stroke: none; stroke-width: 1; stroke-dasharray: none; stroke-linecap: butt; stroke-dashoffset: 0; stroke-linejoin: miter; stroke-miterlimit: 4; is-custom-font: none; font-file-url: none; fill: rgb(236,226,60); fill-rule: nonzero; opacity: 1;" transform=" translate(-428, -230.4)" d="M 428 212.1 c 10.1 0 18.3 8.2 18.3 18.3 c 0 10.1 -8.2 18.3 -18.3 18.3 s -18.3 -8.2 -18.3 -18.3 c 0 -10.1 8.2 -18.3 18.3 -18.3 z" stroke-linecap="round"/>
</g>
		<g transform="matrix(1.5625 0 0 1.5625 262.1094 -36.0157)">
<path style="stroke: none; stroke-width: 1; stroke-dasharray: none; stroke-linecap: butt; stroke-dashoffset: 0; stroke-linejoin: miter; stroke-miterlimit: 4; is-custom-font: none; font-file-url: none; fill: rgb(236,226,60); fill-rule: nonzero; opacity: 1;" transform=" translate(-423.75, -232.95)" d="M 437.7 245.8 c -3 -12.4 -11.2 -22.8 -22.2 -28.6 c -3.5 3.3 -5.7 8 -5.7 13.2 c 0 10.1 8.2 18.3 18.3 18.3 c 3.4 0 6.8 -1.1 9.6 -2.9 z" stroke-linecap="round"/>
</g>
</g>
</g>
		<g transform="matrix(1.3158 0 0 1.3501 -141.9088 -25.2753)" id="Layer_1">
<path style="stroke: none; stroke-width: 0; stroke-dasharray: none; stroke-linecap: butt; stroke-dashoffset: 0; stroke-linejoin: miter; stroke-miterlimit: 4; is-custom-font: none; font-file-url: none; fill: rgb(236,226,60); fill-rule: nonzero; opacity: 1;" transform=" translate(-145.331, -237.3276)" d="M 190.272 218.568 c -4.541 -26.287 -7.049 -52.864 -7.589 -75.047 c -17.548 -0.177 -35.385 0.352 -52.651 1.625 c -13.687 6.629 -24.393 14.398 -30.696 23.271 c -19.379 27.363 -12.365 105.839 10.09 161.292 c 30.949 1.868 62.987 1.836 93.187 0.503 C 187.404 287.76 181.137 242.928 190.272 218.568 z" stroke-linecap="round"/>
</g>
		<g transform="matrix(1.3158 0 0 1.3501 160.2639 -150.0369)" id="Layer_1">
<path style="stroke: none; stroke-width: 0; stroke-dasharray: none; stroke-linecap: butt; stroke-dashoffset: 0; stroke-linejoin: miter; stroke-miterlimit: 4; is-custom-font: none; font-file-url: none; fill: rgb(114,115,109); fill-rule: nonzero; opacity: 1;" transform=" translate(-375.7045, -144.8765)" d="M 401.822 166.049 c -7.966 -16.856 -17.658 -29.91 -28.392 -35.328 c -6.223 -3.316 -14.338 -6.044 -23.843 -8.183 c 5.73 13.108 11.109 28.371 15.223 44.677 C 377.256 166.53 389.668 166.149 401.822 166.049 z" stroke-linecap="round"/>
</g>
		<g transform="matrix(1.3158 0 0 1.3501 32.4027 153.2758)" id="Layer_1">
<path style="stroke: none; stroke-width: 0; stroke-dasharray: none; stroke-linecap: butt; stroke-dashoffset: 0; stroke-linejoin: miter; stroke-miterlimit: 4; is-custom-font: none; font-file-url: none; fill: rgb(0,127,129); fill-rule: evenodd; opacity: 1;" transform=" translate(-282.2695, -369.5245)" d="M 326.447 344.239 c -20.857 12.46 -57.255 27.163 -98.385 39.847 c -12.431 3.847 -25.303 7.503 -38.306 10.849 c 13.687 0.989 28.635 0.243 44.156 -1.858 c 48.958 -6.655 103.46 -26.882 140.871 -49.395 C 358.713 344.475 342.247 344.633 326.447 344.239 z" stroke-linecap="round"/>
</g>
		<g transform="matrix(1.3158 0 0 1.3501 -112.0539 143.5506)" id="Layer_1">
<path style="stroke: none; stroke-width: 0; stroke-dasharray: none; stroke-linecap: butt; stroke-dashoffset: 0; stroke-linejoin: miter; stroke-miterlimit: 4; is-custom-font: none; font-file-url: none; fill: rgb(81,191,157); fill-rule: nonzero; opacity: 1;" transform=" translate(-168.7435, -362.322)" d="M 202.612 330.212 c -30.199 1.333 -62.237 1.365 -93.187 -0.503 c 9.74 24.022 22.369 43.745 37.007 53.097 c 11.599 7.116 26.502 10.921 43.324 12.129 c 13.003 -3.346 25.875 -7.002 38.306 -10.849 C 218.156 368.01 209.473 349.354 202.612 330.212 z" stroke-linecap="round"/>
</g>
		<g transform="matrix(1.3158 0 0 1.3501 13.9807 136.2527)" id="Layer_1">
<path style="stroke: none; stroke-width: 0; stroke-dasharray: none; stroke-linecap: butt; stroke-dashoffset: 0; stroke-linejoin: miter; stroke-miterlimit: 4; is-custom-font: none; font-file-url: none; fill: rgb(0,170,174); fill-rule: nonzero; opacity: 1;" transform=" translate(-264.5295, -356.254)" d="M 232.693 328.422 c -9.736 0.735 -19.798 1.333 -30.081 1.79 c 6.86 19.143 15.544 37.798 25.45 53.874 c 41.13 -12.684 77.527 -27.387 98.385 -39.847 c -44.322 -1.11 -83.189 -6.557 -92.253 -14.427 C 233.685 329.368 233.195 328.891 232.693 328.422 z" stroke-linecap="round"/>
</g>
		<g transform="matrix(1.3158 0 0 1.3501 48.6782 93.3057)" id="Layer_1">
<path style="stroke: none; stroke-width: 0; stroke-dasharray: none; stroke-linecap: butt; stroke-dashoffset: 0; stroke-linejoin: miter; stroke-miterlimit: 4; is-custom-font: none; font-file-url: none; fill: rgb(114,115,109); fill-rule: nonzero; opacity: 1;" transform=" translate(-290.8995, -324.445)" d="M 343.466 330.465 c 3.214 -4.943 5.045 -14.141 5.64 -25.816 c -0.221 0.289 -0.414 0.57 -0.643 0.852 c -7.036 8.824 -54.995 18.352 -115.77 22.922 c 0.502 0.469 0.991 0.946 1.501 1.391 c 9.063 7.87 47.931 13.316 92.253 14.427 C 334.917 339.184 340.852 334.495 343.466 330.465 z" stroke-linecap="round"/>
</g>
		<g transform="matrix(1.3158 0 0 1.3501 -8.5289 -151.3416)" id="Layer_1">
<path style="stroke: none; stroke-width: 0; stroke-dasharray: none; stroke-linecap: butt; stroke-dashoffset: 0; stroke-linejoin: miter; stroke-miterlimit: 4; is-custom-font: none; font-file-url: none; fill: rgb(115,190,136); fill-rule: nonzero; opacity: 1;" transform=" translate(-247.422, -143.9104)" d="M 349.588 122.538 c -41.876 -9.428 -110.979 -7.471 -166.939 5.197 c -19.769 4.479 -37.903 10.294 -52.616 17.411 c 17.267 -1.273 35.104 -1.802 52.651 -1.625 c 50.082 0.5 97.882 6.777 123.634 18.189 c 4.021 1.789 7.817 5.059 11.368 9.477 c 15.368 -1.78 31.247 -3.111 47.125 -3.973 C 360.697 150.909 355.318 135.646 349.588 122.538 z" stroke-linecap="round"/>
</g>
		<g transform="matrix(1.3158 0 0 1.3501 -4.8936 -101.2036)" id="Layer_1">
<path style="stroke: none; stroke-width: 0; stroke-dasharray: none; stroke-linecap: butt; stroke-dashoffset: 0; stroke-linejoin: miter; stroke-miterlimit: 4; is-custom-font: none; font-file-url: none; fill: rgb(166,206,57); fill-rule: nonzero; opacity: 1;" transform=" translate(-250.185, -181.0455)" d="M 317.686 171.188 c -3.551 -4.418 -7.348 -7.688 -11.368 -9.477 c -25.752 -11.412 -73.552 -17.689 -123.634 -18.189 c 0.54 22.183 3.048 48.76 7.589 75.047 c 1.534 -4.078 3.492 -7.598 5.911 -10.422 C 211.602 190.32 261.124 177.722 317.686 171.188 z" stroke-linecap="round"/>
</g>
		<g transform="matrix(1.3158 0 0 1.3501 -58.6148 25.7206)" id="Layer_1">
<path style="stroke: none; stroke-width: 0; stroke-dasharray: none; stroke-linecap: butt; stroke-dashoffset: 0; stroke-linejoin: miter; stroke-miterlimit: 4; is-custom-font: none; font-file-url: none; fill: rgb(95,187,70); fill-rule: nonzero; opacity: 1;" transform=" translate(-209.3573, -274.39)" d="M 190.272 218.568 c -9.136 24.359 -2.868 69.191 12.34 111.644 c 10.283 -0.457 20.345 -1.055 30.081 -1.79 C 212.228 309.1 198.172 264.282 190.272 218.568 z" stroke-linecap="round"/>
</g>
		<g transform="matrix(1.303 -0.183 0.1877 1.337 136.3288 -4.0289)" id="Layer_1">
<path style="stroke: none; stroke-width: 0; stroke-dasharray: none; stroke-linecap: butt; stroke-dashoffset: 0; stroke-linejoin: miter; stroke-miterlimit: 4; is-custom-font: none; font-file-url: none; fill: rgb(163,204,105); fill-rule: evenodd; opacity: 1;" transform=" translate(-353.5092, -248.0252)" d="M 349.105 304.648 c 23.984 -30.754 26.992 -73.314 20.689 -113.207 c -3.853 -0.17 -7.322 0.219 -10.339 1.236 c -7.26 2.455 -15.825 6.602 -25.081 12.066 C 345 236.094 350.494 277.191 349.105 304.648 z" stroke-linecap="round"/>
</g>
		<g transform="matrix(1.3158 0 0 1.1399 153.1334 18.3545)" id="343174">
<path style="stroke: none; stroke-width: 0; stroke-dasharray: none; stroke-linecap: butt; stroke-dashoffset: 0; stroke-linejoin: miter; stroke-miterlimit: 4; is-custom-font: none; font-file-url: none; fill: rgb(114,115,109); fill-rule: nonzero; opacity: 1;" transform=" translate(-375.1987, -255.2475)" d="M 414.089 311.244 c 18.264 -25.25 9.417 -99.318 -12.267 -145.195 c -12.154 0.101 -24.566 0.481 -37.012 1.166 c 11.649 46.055 13.229 100.33 -15.705 137.434 c -0.595 11.676 -2.426 20.873 -5.64 25.816 c -2.614 4.03 -8.549 8.719 -17.019 13.774 c 15.8 0.394 32.266 0.235 48.337 -0.558 C 392.566 332.977 406.478 321.77 414.089 311.244 z" stroke-linecap="round"/>
</g>
</g>
</g>
</svg>